<?xml version="1.0" encoding="UTF-8"?>
<svg xmlns="http://www.w3.org/2000/svg" xmlns:xlink="http://www.w3.org/1999/xlink" width="16px" height="16px" viewBox="0 0 16 16" version="1.1">
<g id="surface1">
<path style=" stroke:none;fill-rule:nonzero;fill:rgb(0%,0%,0%);fill-opacity:1;" d="M 13.726562 14.5 C 13.570312 14.5 13.414062 14.464844 13.273438 14.394531 L 10.378906 12.945312 L 5 12.945312 C 2.789062 12.945312 1 11.152344 1 8.945312 L 1 5.945312 C 1 3.734375 2.789062 1.945312 5 1.945312 L 11 1.945312 C 13.210938 1.945312 15 3.734375 15 5.945312 L 15 8.945312 C 15 9.820312 14.710938 10.671875 14.179688 11.371094 L 14.679688 13.234375 C 14.761719 13.535156 14.699219 13.855469 14.515625 14.101562 C 14.328125 14.351562 14.035156 14.496094 13.726562 14.5 Z M 5 2.945312 C 3.34375 2.945312 2 4.289062 2 5.945312 L 2 8.945312 C 2 10.601562 3.34375 11.945312 5 11.945312 L 10.5 11.945312 C 10.578125 11.945312 10.65625 11.964844 10.726562 12 L 13.726562 13.5 L 13.144531 11.378906 C 13.101562 11.21875 13.144531 11.046875 13.253906 10.921875 C 13.734375 10.375 14 9.671875 14 8.945312 L 14 5.945312 C 14 4.289062 12.65625 2.945312 11 2.945312 Z M 5 2.945312 "/>
<path style=" stroke:none;fill-rule:nonzero;fill:rgb(0%,0%,0%);fill-opacity:1;" d="M 12 9.5 L 4 9.5 C 3.722656 9.5 3.5 9.277344 3.5 9 C 3.5 8.722656 3.722656 8.5 4 8.5 L 12 8.5 C 12.277344 8.5 12.5 8.722656 12.5 9 C 12.5 9.277344 12.277344 9.5 12 9.5 Z M 12 9.5 "/>
<path style=" stroke:none;fill-rule:nonzero;fill:rgb(0%,0%,0%);fill-opacity:1;" d="M 12 6.5 L 4 6.5 C 3.722656 6.5 3.5 6.277344 3.5 6 C 3.5 5.722656 3.722656 5.5 4 5.5 L 12 5.5 C 12.277344 5.5 12.5 5.722656 12.5 6 C 12.5 6.277344 12.277344 6.5 12 6.5 Z M 12 6.5 "/>
</g>
</svg>
