<?xml version="1.0" encoding="UTF-8"?>
<svg xmlns="http://www.w3.org/2000/svg" xmlns:xlink="http://www.w3.org/1999/xlink" width="16px" height="16px" viewBox="0 0 16 16" version="1.1">
<g id="surface1">
<path style=" stroke:none;fill-rule:nonzero;fill:rgb(0%,0%,0%);fill-opacity:1;" d="M 6.589844 0.6875 C 5.984375 1.128906 5.675781 1.890625 5.675781 2.9375 L 5.675781 5.425781 L 2.230469 5.425781 C 1.003906 5.425781 0 6.425781 0 7.65625 L 0 7.726562 C 0 7.746094 0.00390625 7.765625 0.0078125 7.785156 L 0.925781 13.550781 C 1.09375 14.933594 2.058594 15.730469 3.570312 15.730469 L 10.402344 15.730469 C 11.628906 15.730469 12.632812 14.730469 12.632812 13.5 L 12.632812 7.097656 C 12.632812 6.90625 12.789062 6.75 12.980469 6.75 L 14.851562 6.75 C 15.042969 6.75 15.199219 6.90625 15.199219 7.097656 L 15.199219 13.886719 C 15.199219 14.078125 15.042969 14.234375 14.851562 14.234375 L 13.769531 14.234375 C 13.546875 14.234375 13.367188 14.414062 13.367188 14.636719 C 13.367188 14.859375 13.546875 15.039062 13.769531 15.039062 L 14.851562 15.039062 C 15.484375 15.039062 16 14.523438 16 13.886719 L 16 7.097656 C 16 6.464844 15.484375 5.949219 14.851562 5.949219 L 12.980469 5.949219 C 12.53125 5.949219 12.136719 6.210938 11.949219 6.589844 C 11.921875 6.574219 11.894531 6.5625 11.859375 6.550781 C 11.753906 6.523438 9.203125 5.777344 9.203125 3.574219 L 9.203125 0.78125 C 9.203125 0.605469 9.089844 0.449219 8.921875 0.398438 C 8.871094 0.382812 7.550781 -0.0195312 6.589844 0.6875 Z M 11.648438 7.320312 C 11.710938 7.335938 11.773438 7.339844 11.832031 7.328125 L 11.832031 13.5 C 11.832031 14.285156 11.191406 14.929688 10.402344 14.929688 L 3.570312 14.929688 C 2.460938 14.929688 1.839844 14.433594 1.714844 13.4375 L 0.800781 7.691406 L 0.800781 7.65625 C 0.800781 6.871094 1.441406 6.226562 2.230469 6.226562 L 6.078125 6.226562 C 6.300781 6.226562 6.480469 6.046875 6.480469 5.824219 L 6.480469 2.9375 C 6.480469 2.160156 6.675781 1.621094 7.066406 1.332031 C 7.484375 1.019531 8.066406 1.046875 8.40625 1.105469 L 8.40625 3.570312 C 8.40625 6.378906 11.515625 7.285156 11.648438 7.320312 Z M 11.648438 7.320312 "/>
</g>
</svg>
