<?xml version="1.0" encoding="UTF-8"?>
<svg xmlns="http://www.w3.org/2000/svg" xmlns:xlink="http://www.w3.org/1999/xlink" width="16px" height="16px" viewBox="0 0 16 16" version="1.1">
<g id="surface1">
<path style=" stroke:none;fill-rule:nonzero;fill:rgb(28.627451%,29.803922%,30.588235%);fill-opacity:1;" d="M 15.519531 0.445312 C 15.460938 0.445312 15.398438 0.453125 15.34375 0.472656 C 15.34375 0.480469 0.3125 5.980469 0.3125 5.980469 C 0.121094 6.0625 0 6.25 0 6.453125 C -0.00390625 6.625 0.0859375 6.78125 0.230469 6.871094 C 0.25 6.878906 3.246094 8.71875 4.195312 9.300781 C 4.367188 9.40625 4.464844 9.605469 4.445312 9.808594 C 4.363281 10.519531 4.195312 12.109375 4.195312 12.128906 C 4.195312 12.398438 4.414062 12.621094 4.683594 12.625 L 6.605469 12.617188 C 6.773438 12.621094 6.925781 12.714844 7.003906 12.863281 L 8.460938 15.332031 C 8.554688 15.472656 8.710938 15.554688 8.878906 15.558594 C 9.0625 15.558594 9.226562 15.453125 9.308594 15.289062 L 15.9375 1.15625 C 15.980469 1.089844 16.003906 1.015625 16 0.933594 C 15.996094 0.667969 15.785156 0.453125 15.519531 0.445312 Z M 6.195312 10.535156 L 6.535156 7.386719 L 15.664062 0.84375 Z M 6.195312 10.535156 "/>
</g>
</svg>
