<?xml version="1.0" encoding="UTF-8"?>
<svg xmlns="http://www.w3.org/2000/svg" xmlns:xlink="http://www.w3.org/1999/xlink" width="32px" height="32px" viewBox="0 0 32 32" version="1.1">
<g id="surface1">
<path style=" stroke:none;fill-rule:nonzero;fill:rgb(0%,0%,0%);fill-opacity:1;" d="M 30.609375 3.824219 L 1.390625 3.824219 C 0.625 3.824219 0 4.453125 0 5.21875 L 0 26.78125 C 0 27.546875 0.625 28.175781 1.390625 28.175781 L 30.609375 28.175781 C 31.375 28.175781 32 27.546875 32 26.78125 L 32 5.21875 C 32 4.453125 31.375 3.824219 30.609375 3.824219 Z M 29.21875 6.609375 L 29.21875 18.261719 L 26.886719 16.3125 C 26.363281 15.894531 25.636719 15.894531 25.113281 16.3125 L 21.355469 19.445312 L 12.625 11.859375 C 12.105469 11.410156 11.375 11.410156 10.851562 11.824219 L 2.78125 18.332031 L 2.78125 6.609375 Z M 2.78125 25.390625 L 2.78125 21.914062 L 11.6875 14.714844 L 20.417969 22.296875 C 20.9375 22.746094 21.703125 22.746094 22.226562 22.332031 L 25.984375 19.199219 L 29.21875 21.914062 L 29.21875 25.390625 Z M 18.121094 11.339844 C 18.121094 9.949219 19.269531 8.800781 20.695312 8.800781 C 22.121094 8.800781 23.269531 9.949219 23.269531 11.339844 C 23.269531 12.730469 22.121094 13.878906 20.695312 13.878906 C 19.269531 13.878906 18.121094 12.730469 18.121094 11.339844 Z M 18.121094 11.339844 "/>
</g>
</svg>
