<?xml version="1.0" encoding="UTF-8"?>
<svg xmlns="http://www.w3.org/2000/svg" xmlns:xlink="http://www.w3.org/1999/xlink" width="32px" height="32px" viewBox="0 0 32 32" version="1.1">
<g id="surface1">
<path style=" stroke:none;fill-rule:nonzero;fill:rgb(0%,0%,0%);fill-opacity:1;" d="M 30.753906 6.671875 C 29.597656 5.300781 27.464844 4.738281 23.390625 4.738281 L 8.609375 4.738281 C 4.441406 4.738281 2.273438 5.335938 1.121094 6.796875 C 0 8.222656 0 10.324219 0 13.230469 L 0 18.769531 C 0 24.402344 1.332031 27.261719 8.609375 27.261719 L 23.390625 27.261719 C 26.925781 27.261719 28.882812 26.765625 30.148438 25.554688 C 31.445312 24.3125 32 22.28125 32 18.769531 L 32 13.230469 C 32 10.164062 31.914062 8.050781 30.753906 6.671875 Z M 20.542969 16.765625 L 13.832031 20.273438 C 13.679688 20.351562 13.515625 20.390625 13.351562 20.390625 C 13.167969 20.390625 12.980469 20.339844 12.816406 20.242188 C 12.507812 20.054688 12.320312 19.71875 12.320312 19.359375 L 12.320312 12.363281 C 12.320312 12.003906 12.507812 11.667969 12.816406 11.480469 C 13.125 11.292969 13.507812 11.28125 13.828125 11.449219 L 20.542969 14.933594 C 20.882812 15.109375 21.097656 15.464844 21.097656 15.847656 C 21.097656 16.234375 20.886719 16.585938 20.542969 16.765625 Z M 20.542969 16.765625 "/>
</g>
</svg>
